<?xml version="1.0" encoding="UTF-8"?>
<svg id="Layer_1" xmlns="http://www.w3.org/2000/svg" version="1.1" viewBox="0 0 32 32">
  <!-- Generator: Adobe Illustrator 29.6.1, SVG Export Plug-In . SVG Version: 2.1.1 Build 9)  -->
  <defs>
    <style>
      .st0 {
        fill: #fff;
        fill-rule: evenodd;
      }

      .st1 {
        fill: #6552ff;
      }
    </style>
  </defs>
  <circle class="st1" cx="16" cy="16" r="15.52"/>
  <g>
    <path class="st0" d="M11.22,20.49h-5.12l.54-.94c.33-.56.88-.89,1.54-.89h4.7c.26,0,.49-.13.63-.35l-.41.71h0s-.17.3-.17.3l-.17.29c-.33.56-.88.89-1.54.89Z"/>
    <path class="st0" d="M13.33,16.83h-5.12l.54-.94c.33-.56.88-.89,1.54-.89h4.7c.27,0,.5-.13.63-.37l-.42.72h0s-.33.59-.33.59c-.33.56-.88.89-1.54.89Z"/>
    <path class="st0" d="M15.44,13.17h-5.12l.54-.94c.33-.56.88-.89,1.54-.89h4.7c.27,0,.5-.13.63-.37l-.42.72h0s-.33.59-.33.59c-.33.56-.88.89-1.54.89Z"/>
    <path class="st0" d="M13.5,18.3h0s.33-.59.33-.59c.33-.56.88-.89,1.54-.89h8.45c.65,0,1.21.32,1.54.89l.54.94h-12.19c-.26,0-.49.13-.63.35l.41-.71Z"/>
    <path class="st0" d="M15.62,14.63l.33-.58h0c.33-.56.88-.89,1.53-.89h4.22c.65,0,1.21.32,1.54.89l.54.94h-7.96c-.26,0-.49.13-.63.35l.42-.72Z"/>
    <path class="st0" d="M18.06,10.4c.33-.56.88-.89,1.54-.89s1.21.32,1.54.89l.54.94h-3.74c-.26,0-.49.13-.63.36l.75-1.3Z"/>
  </g>
</svg>