<?xml version="1.0" standalone="no"?>
<!DOCTYPE svg PUBLIC "-//W3C//DTD SVG 20010904//EN"
 "http://www.w3.org/TR/2001/REC-SVG-20010904/DTD/svg10.dtd">
<svg version="1.0" xmlns="http://www.w3.org/2000/svg"
 width="1962.000000pt" height="1962.000000pt" viewBox="0 0 1962.000000 1962.000000"
 preserveAspectRatio="xMidYMid meet">
<metadata>
Created by potrace 1.14, written by Peter Selinger 2001-2017
</metadata>
<g transform="translate(0.000000,1962.000000) scale(0.100000,-0.100000)"
fill="#000000" stroke="none">
<path d="M13247 15234 c-1 -1 -33 -5 -70 -9 -37 -3 -76 -8 -85 -9 -9 -2 -39
-7 -67 -11 -27 -5 -52 -9 -55 -10 -3 -1 -21 -5 -40 -9 -75 -16 -229 -70 -315
-109 -312 -143 -574 -381 -762 -692 -60 -100 -163 -277 -275 -475 -113 -198
-171 -272 -278 -352 -81 -61 -217 -113 -323 -124 -34 -3 -1155 -7 -2492 -9
-1337 -1 -2450 -6 -2475 -10 -422 -67 -719 -210 -991 -477 -152 -148 -212
-233 -414 -583 -76 -132 -161 -278 -188 -325 -27 -47 -58 -98 -67 -115 -9 -16
-41 -72 -71 -123 -78 -135 -97 -171 -94 -174 7 -6 5173 -1 5235 6 450 48 819
232 1116 557 116 128 196 251 428 660 145 256 187 319 265 392 37 35 92 78
122 95 60 34 180 77 249 88 25 4 890 8 1922 8 1032 1 1879 3 1881 6 3 3 -60
118 -140 255 -79 138 -155 268 -167 290 -13 22 -32 56 -43 75 -55 95 -95 164
-148 255 -136 236 -278 410 -440 540 -28 22 -52 43 -55 46 -3 4 -44 32 -91 62
-232 151 -476 237 -774 272 -45 6 -293 13 -298 9z"/>
<path d="M11119 11616 c-2 -2 -31 -7 -64 -10 -197 -21 -378 -73 -560 -161
-318 -154 -573 -398 -763 -730 -19 -33 -43 -76 -54 -95 -268 -470 -307 -531
-393 -615 -89 -87 -201 -146 -330 -175 -88 -19 -137 -20 -2510 -20 -1331 -1
-2436 -3 -2455 -5 -591 -56 -1052 -353 -1367 -882 -29 -49 -66 -113 -83 -143
-17 -30 -38 -68 -48 -85 -9 -16 -42 -73 -72 -125 -30 -52 -59 -103 -65 -112
-32 -54 -141 -245 -144 -253 -2 -5 -12 -21 -21 -35 -9 -14 -29 -47 -44 -73
-14 -26 -33 -59 -42 -73 l-17 -24 2634 3 c1449 1 2650 6 2669 10 19 4 62 12
95 17 231 38 499 150 692 291 194 141 353 316 485 535 30 49 57 96 61 104 4 8
15 29 26 45 10 17 71 122 136 235 163 284 199 334 300 419 47 39 173 103 248
124 l72 21 3935 2 c2164 2 3963 3 3998 3 l64 1 -20 33 c-11 17 -106 183 -212
367 -106 184 -205 355 -220 380 -15 25 -42 72 -61 105 -18 33 -53 91 -78 129
-25 38 -50 76 -56 85 -5 9 -12 18 -15 21 -3 3 -16 19 -29 35 -140 183 -335
345 -556 461 -80 42 -235 105 -290 118 -5 2 -28 8 -50 14 -22 6 -85 21 -140
34 l-100 22 -2276 3 c-1252 2 -2278 1 -2280 -1z"/>
<path d="M9097 8004 c-1 -1 -36 -5 -77 -8 -531 -45 -989 -314 -1287 -756 -45
-67 -81 -126 -146 -240 -103 -182 -253 -441 -281 -484 -70 -110 -177 -201
-303 -258 -145 -65 39 -61 -2643 -63 -1339 -1 -2464 -5 -2500 -9 -56 -7 -108
-16 -240 -42 -96 -19 -364 -129 -455 -187 -189 -119 -327 -238 -443 -382 -31
-38 -59 -72 -62 -75 -8 -7 -120 -179 -120 -183 0 -2 -36 -66 -80 -141 -44 -75
-80 -138 -80 -140 0 -2 -25 -45 -55 -95 -30 -51 -55 -94 -55 -97 0 -3 -8 -18
-19 -32 -10 -15 -30 -47 -43 -72 -14 -25 -64 -112 -112 -195 -47 -82 -86 -152
-86 -155 0 -7 5208 -4 5245 3 17 3 55 9 85 12 136 16 325 72 480 143 212 96
439 272 587 456 32 39 60 73 63 76 20 20 123 189 271 445 206 358 236 404 307
473 97 93 251 169 378 187 27 4 2775 7 6107 7 l6058 0 -19 31 c-16 26 -149
256 -270 467 -335 584 -365 630 -527 798 -62 66 -245 222 -259 222 -3 0 -36
20 -73 44 -139 89 -340 170 -515 206 -131 27 -141 28 -235 36 -66 5 -8590 13
-8596 8z"/>
</g>
</svg>
