<svg width="189" height="169" viewBox="0 0 189 169" fill="none" xmlns="http://www.w3.org/2000/svg">
<g clip-path="url(#clip0_191_680)">
<path d="M112.423 28.2386V5.85352" stroke="#E5E5E5" stroke-width="11.2875" stroke-miterlimit="10" stroke-linecap="round"/>
<path d="M94.5 29.2573L86.5762 10.1504" stroke="#E5E5E5" stroke-width="11.2875" stroke-miterlimit="10" stroke-linecap="round"/>
<path d="M130.356 29.2573L138.28 10.1504" stroke="#E5E5E5" stroke-width="11.2875" stroke-miterlimit="10" stroke-linecap="round"/>
<path d="M127.59 139.648H97.0664V160.757H127.59V139.648Z" fill="#989898"/>
<path d="M93.5743 152.456H131.072C135.632 152.456 139.336 156.156 139.336 160.71V164.234H85.3223V160.71C85.3223 156.156 89.0263 152.456 93.586 152.456H93.5743Z" fill="#C7C7C7"/>
<path d="M171.991 57.1914H52.6647C46.8902 57.1914 42.209 61.867 42.209 67.6346V134.86C42.209 140.628 46.8902 145.303 52.6647 145.303H171.991C177.766 145.303 182.447 140.628 182.447 134.86V67.6346C182.447 61.867 177.766 57.1914 171.991 57.1914Z" fill="#C7C7C7"/>
<path d="M76.5658 105.274H11.9092V166.658H76.5658V105.274Z" fill="#E5E5E5"/>
<path d="M168.405 66.1367H56.2405C53.5345 66.1367 51.3408 68.3277 51.3408 71.0305V131.477C51.3408 134.18 53.5345 136.371 56.2405 136.371H168.405C171.111 136.371 173.305 134.18 173.305 131.477V71.0305C173.305 68.3277 171.111 66.1367 168.405 66.1367Z" fill="#989898"/>
<path d="M98.4268 45.7536C97.5828 44.2667 96.0004 43.3535 94.289 43.3535H67.7043C65.0787 43.3535 62.9453 45.4843 62.9453 48.1068V120.811C62.9453 123.434 65.0787 125.565 67.7043 125.565H157.141C159.766 125.565 161.9 123.434 161.9 120.811V52.907C161.9 50.2844 159.766 48.1537 157.141 48.1537H102.565C100.853 48.1537 99.2707 47.2405 98.4268 45.7536Z" fill="#BBBBBB"/>
<path d="M162.802 125.565H67.1416L88.4047 69.2158C89.108 67.366 90.878 66.1367 92.8589 66.1367H181.639C184.968 66.1367 187.265 69.4617 186.093 72.5642L167.256 122.486C166.553 124.335 164.783 125.565 162.802 125.565Z" fill="#E5E5E5"/>
<path d="M106.866 105.274H42.209V166.658H106.866V105.274Z" fill="white"/>
<path d="M76.5774 98.4375H8.74414V113.177H76.5774V98.4375Z" fill="#E5E5E5"/>
<path d="M109.902 98.4375H42.209V113.177H109.902V98.4375Z" fill="white"/>
<path d="M106.866 113.4H11.9092V117.041H106.866V113.4Z" fill="#989898"/>
<path d="M2.34473 166.657H186.656" stroke="#C7C7C7" stroke-width="4.51501" stroke-miterlimit="10" stroke-linecap="round"/>
<path d="M98.8949 148.816H50.1797V158.323H98.8949V148.816Z" fill="#E5E5E5"/>
<path d="M79.3673 120.472H66.7196C64.784 120.472 63.2148 122.039 63.2148 123.972V123.984C63.2148 125.917 64.784 127.485 66.7196 127.485H79.3673C81.3029 127.485 82.8721 125.917 82.8721 123.984V123.972C82.8721 122.039 81.3029 120.472 79.3673 120.472Z" fill="#989898"/>
</g>
<defs>
<clipPath id="clip0_191_680">
<rect width="189" height="169" fill="white"/>
</clipPath>
</defs>
</svg>
