<svg width="273" height="208" viewBox="0 0 273 208" fill="none" xmlns="http://www.w3.org/2000/svg">
<path d="M79.9823 203.763H172.346C177.631 203.763 181.915 199.48 181.915 194.198L181.915 32.1052C181.915 26.8226 177.631 22.5403 172.346 22.5403H79.9823C74.6975 22.5403 70.4134 26.8226 70.4134 32.1052L70.4134 194.198C70.4134 199.48 74.6975 203.763 79.9823 203.763Z" fill="#C7C7C7"/>
<path d="M91.0633 203.763H183.427C188.712 203.763 192.996 199.48 192.996 194.198L192.996 32.1052C192.996 26.8226 188.712 22.5403 183.427 22.5403H91.0633C85.7786 22.5403 81.4945 26.8226 81.4945 32.1052L81.4945 194.198C81.4945 199.48 85.7786 203.763 91.0633 203.763Z" fill="#989898"/>
<path d="M90.3174 33.5107H184.194V200.162H102.529C95.7944 200.162 90.3174 194.687 90.3174 187.956V33.5107Z" fill="white"/>
<path d="M132.047 118.808L126.847 111.735L118.685 115.016L129.873 75.499L143.257 79.2909L132.047 118.808Z" fill="#E5E5E5"/>
<path d="M144.342 118.808L149.542 111.735L157.704 115.016L146.515 75.499L133.132 79.2909L144.342 118.808Z" fill="#E5E5E5"/>
<path d="M116.191 171.062L116.105 187.933C116.063 194.409 110.991 199.735 104.512 200.076L102.615 200.161H201.053C207.809 200.161 213.264 194.686 213.264 187.955V171.062H116.191Z" fill="#E5E5E5"/>
<path d="M150.672 19.5781C150.672 12.676 145.089 7.09473 138.184 7.09473C131.279 7.09473 125.695 12.676 125.695 19.5781H110.649V37.8133H165.697V19.5781H150.651H150.672ZM138.184 13.1873C141.722 13.1873 144.577 16.0419 144.577 19.5781H131.79C131.79 16.0419 134.646 13.1873 138.184 13.1873Z" fill="#E5E5E5"/>
<path d="M160.881 23.584H115.53C114.73 23.584 114.081 24.2325 114.081 25.0326C114.081 25.8326 114.73 26.4812 115.53 26.4812H160.881C161.681 26.4812 162.33 25.8326 162.33 25.0326C162.33 24.2325 161.681 23.584 160.881 23.584Z" fill="white"/>
<path d="M160.881 30.6133H115.53C114.73 30.6133 114.081 31.2618 114.081 32.0619C114.081 32.8619 114.73 33.5105 115.53 33.5105H160.881C161.681 33.5105 162.33 32.8619 162.33 32.0619C162.33 31.2618 161.681 30.6133 160.881 30.6133Z" fill="white"/>
<path d="M202.311 60.6286C219.059 60.6286 232.637 47.0566 232.637 30.3148C232.637 13.5729 219.059 0.000976562 202.311 0.000976562C185.562 0.000976562 171.984 13.5729 171.984 30.3148C171.984 47.0566 185.562 60.6286 202.311 60.6286Z" fill="#E5E5E5"/>
<path d="M209.726 40.5176H194.915C191.772 40.5176 189.225 43.0641 189.225 46.2054V68.4455C189.225 71.5868 191.772 74.1333 194.915 74.1333H209.726C212.869 74.1333 215.416 71.5868 215.416 68.4455V46.2054C215.416 43.0641 212.869 40.5176 209.726 40.5176Z" fill="#E5E5E5"/>
<path d="M211.559 74.1338H193.082C190.952 74.1338 189.225 75.8601 189.225 77.9896V85.7438C189.225 87.8733 190.952 89.5996 193.082 89.5996H211.559C213.689 89.5996 215.416 87.8733 215.416 85.7438V77.9896C215.416 75.8601 213.689 74.1338 211.559 74.1338Z" fill="#989898"/>
<path d="M217.144 74.6647L187.116 80.6787L187.464 82.4124L217.491 76.3983L217.144 74.6647Z" fill="white"/>
<path d="M217.129 80.3278L187.102 86.3418L187.449 88.0755L217.477 82.0614L217.129 80.3278Z" fill="white"/>
<path d="M196.001 74.135V37.5156H208.617V74.135" stroke="white" stroke-width="1.42076" stroke-miterlimit="10"/>
<path d="M191.186 27.8857C193.849 27.8857 196.002 30.0373 196.002 32.7002V37.5146H191.186C188.522 37.5146 186.369 35.363 186.369 32.7002C186.369 30.0373 188.522 27.8857 191.186 27.8857Z" stroke="white" stroke-width="1.42076" stroke-miterlimit="10"/>
<path d="M218.251 32.7207C218.251 35.3835 216.099 37.5351 213.435 37.5351H208.618V32.7207C208.618 30.0578 210.771 27.9062 213.435 27.9062C216.099 27.9062 218.251 30.0578 218.251 32.7207Z" stroke="white" stroke-width="1.42076" stroke-miterlimit="10"/>
<path d="M111.886 121.235H101.187C100.175 121.235 99.3545 122.056 99.3545 123.067V133.761C99.3545 134.773 100.175 135.593 101.187 135.593H111.886C112.898 135.593 113.718 134.773 113.718 133.761V123.067C113.718 122.056 112.898 121.235 111.886 121.235Z" stroke="#E5E5E5" stroke-width="2.84153" stroke-linejoin="round"/>
<path d="M103.873 125.815L106.793 128.733L115.083 120.446" stroke="#989898" stroke-width="2.84153" stroke-linecap="round" stroke-linejoin="round"/>
<path d="M111.886 144.477H101.187C100.175 144.477 99.3545 145.297 99.3545 146.309V157.003C99.3545 158.014 100.175 158.835 101.187 158.835H111.886C112.898 158.835 113.718 158.014 113.718 157.003V146.309C113.718 145.297 112.898 144.477 111.886 144.477Z" stroke="#E5E5E5" stroke-width="2.84153" stroke-linejoin="round"/>
<path d="M103.873 149.078L106.793 151.997L115.083 143.688" stroke="#989898" stroke-width="2.84153" stroke-linecap="round" stroke-linejoin="round"/>
<path d="M124.522 128.414H174.306" stroke="#989898" stroke-width="2.84153" stroke-miterlimit="10" stroke-linecap="round"/>
<path d="M124.522 151.656H174.306" stroke="#989898" stroke-width="2.84153" stroke-miterlimit="10" stroke-linecap="round"/>
<path d="M138.183 52.2985L142.658 48.4854L145.706 53.4915L151.119 51.2334L152.483 56.9425L158.344 56.4739L157.875 62.3321L163.586 63.6955L161.327 69.1064L166.335 72.1527L162.499 76.605L166.335 81.0786L161.327 84.1248L163.586 89.5357L157.875 90.8991L158.344 96.7574L152.483 96.2887L151.119 101.977L145.706 99.7398L142.658 104.746L138.183 100.911L133.729 104.746L130.681 99.7398L125.268 101.977L123.904 96.2887L118.044 96.7574L118.512 90.8991L112.801 89.5357L115.06 84.1248L110.052 81.0786L113.888 76.605L110.052 72.1527L115.06 69.1064L112.801 63.6955L118.512 62.3321L118.044 56.4739L123.904 56.9425L125.268 51.2334L130.681 53.4915L133.729 48.4854L138.183 52.2985Z" fill="#989898"/>
<path d="M138.183 85.1697L129.744 89.6007L131.363 80.2062L124.522 73.5384L133.963 72.175L138.183 63.6113L142.424 72.175L151.865 73.5384L145.024 80.2062L146.644 89.6007L138.183 85.1697Z" fill="#E5E5E5"/>
<path d="M4.2627 203H268.738" stroke="#C7C7C7" stroke-width="5.68306" stroke-miterlimit="10" stroke-linecap="round"/>
</svg>
