<svg width="233" height="181" viewBox="0 0 233 181" fill="none" xmlns="http://www.w3.org/2000/svg">
<g clip-path="url(#clip0_191_507)">
<path d="M174.946 115.981C174.946 123.241 169.057 129.116 161.781 129.116C154.504 129.116 148.615 123.241 148.615 115.981C148.615 108.721 154.504 102.847 161.781 102.847C169.057 102.847 174.946 108.721 174.946 115.981ZM194.175 111.237H188.558C187.856 107.273 186.292 103.611 184.074 100.443L188.047 96.4785C188.845 95.6825 188.845 94.4089 188.047 93.6128L184.201 89.776C183.404 88.98 182.127 88.98 181.329 89.776L177.356 93.7402C174.18 91.5273 172.584 89.967 168.611 89.2665V83.6625C168.611 82.5481 167.701 81.6406 166.584 81.6406H159.084C157.967 81.6406 157.057 82.5481 157.057 83.6625V89.2665C153.084 89.967 149.413 91.5273 146.238 93.7402L142.264 89.776C141.466 88.98 140.19 88.98 139.392 89.776L135.546 93.6128C134.748 94.4089 134.748 95.6825 135.546 96.4785L139.52 100.443C137.301 103.611 135.738 107.273 135.035 111.237H129.418C128.301 111.237 127.392 112.144 127.392 113.259V118.672C127.392 119.786 128.301 120.694 129.418 120.694H135.035C135.738 124.658 137.301 128.319 139.52 131.488L135.546 135.452C134.748 136.248 134.748 137.522 135.546 138.318L139.392 142.154C140.19 142.95 141.466 142.95 142.264 142.154L146.238 138.19C149.413 140.403 153.084 141.963 157.057 142.664V148.268C157.057 149.382 157.967 150.29 159.084 150.29H164.509C165.627 150.29 166.536 149.382 166.536 148.268V142.664C170.51 141.963 174.18 140.403 177.356 138.19L181.329 142.154C182.127 142.95 183.404 142.95 184.201 142.154L188.047 138.318C188.845 137.522 188.845 136.248 188.047 135.452L184.074 131.488C186.292 128.319 187.856 124.658 188.558 120.694H194.175C195.292 120.694 196.202 119.786 196.202 118.672V113.259C196.202 112.144 195.292 111.237 194.175 111.237Z" fill="#E5E5E5"/>
<path d="M140.908 89.2031H147.77L147.387 142.744H140.557L141.881 120.375L140.908 89.2031Z" fill="#E5E5E5"/>
<path d="M182.11 89.2031H188.972L188.605 142.744H182.685L183.084 120.375L182.11 89.2031Z" fill="#E5E5E5"/>
<path d="M181.776 115.981C181.776 123.241 175.888 129.116 168.611 129.116C161.334 129.116 155.446 123.241 155.446 115.981C155.446 108.721 161.334 102.847 168.611 102.847C175.888 102.847 181.776 108.721 181.776 115.981ZM201.005 111.237H195.388C194.686 107.273 193.122 103.611 190.904 100.443L194.877 96.4785C195.675 95.6825 195.675 94.4089 194.877 93.6128L191.031 89.776C190.234 88.98 188.957 88.98 188.159 89.776L184.186 93.7402C181.01 91.5273 177.34 89.967 173.366 89.2665V83.6625C173.366 82.5481 172.457 81.6406 171.34 81.6406H165.914C164.797 81.6406 163.887 82.5481 163.887 83.6625V89.2665C159.914 89.967 156.243 91.5273 153.068 93.7402L149.094 89.776C148.296 88.98 147.02 88.98 146.222 89.776L142.376 93.6128C141.578 94.4089 141.578 95.6825 142.376 96.4785L146.35 100.443C144.131 103.611 142.568 107.273 141.865 111.237H136.248C135.131 111.237 134.222 112.144 134.222 113.259V118.672C134.222 119.786 135.131 120.694 136.248 120.694H141.865C142.568 124.658 144.131 128.319 146.35 131.488L142.376 135.452C141.578 136.248 141.578 137.522 142.376 138.318L146.222 142.154C147.02 142.95 148.296 142.95 149.094 142.154L153.068 138.19C156.243 140.403 159.914 141.963 163.887 142.664V148.268C163.887 149.382 164.797 150.29 165.914 150.29H171.34C172.457 150.29 173.366 149.382 173.366 148.268V142.664C177.34 141.963 181.01 140.403 184.186 138.19L188.159 142.154C188.957 142.95 190.234 142.95 191.031 142.154L194.877 138.318C195.675 137.522 195.675 136.248 194.877 135.452L190.904 131.488C193.122 128.319 194.686 124.658 195.388 120.694H201.005C202.122 120.694 203.032 119.786 203.032 118.672V113.259C203.032 112.144 202.122 111.237 201.005 111.237Z" fill="#C7C7C7"/>
<path d="M55.9482 45.3097C68.4895 45.3097 78.6562 35.1668 78.6562 22.6548C78.6562 10.1429 68.4895 0 55.9482 0C43.4069 0 33.2402 10.1429 33.2402 22.6548C33.2402 35.1668 43.4069 45.3097 55.9482 45.3097Z" fill="#E5E5E5"/>
<path d="M61.4862 30.2803H50.3955C48.0424 30.2803 46.1348 32.1834 46.1348 34.531V51.152C46.1348 53.4997 48.0424 55.4028 50.3955 55.4028H61.4862C63.8393 55.4028 65.7469 53.4997 65.7469 51.152V34.531C65.7469 32.1834 63.8393 30.2803 61.4862 30.2803Z" fill="#E5E5E5"/>
<path d="M62.8585 55.4033H49.0231C47.4279 55.4033 46.1348 56.6935 46.1348 58.2849V64.08C46.1348 65.6715 47.4279 66.9616 49.0231 66.9616H62.8585C64.4537 66.9616 65.7469 65.6715 65.7469 64.08V58.2849C65.7469 56.6935 64.4537 55.4033 62.8585 55.4033Z" fill="#989898"/>
<path d="M67.0509 55.8033L44.5664 60.2979L44.8266 61.5935L67.3111 57.0989L67.0509 55.8033Z" fill="white"/>
<path d="M67.0558 60.0347L44.5713 64.5293L44.8315 65.8249L67.316 61.3304L67.0558 60.0347Z" fill="white"/>
<path d="M51.2236 55.4044V28.0371H60.6547V55.4044" stroke="white" stroke-width="1.21909" stroke-miterlimit="10"/>
<path d="M47.6182 20.8398C49.6129 20.8398 51.2246 22.4478 51.2246 24.4379V28.0359H47.6182C45.6235 28.0359 44.0117 26.4279 44.0117 24.4379C44.0117 22.4478 45.6235 20.8398 47.6182 20.8398Z" stroke="white" stroke-width="1.21909" stroke-miterlimit="10"/>
<path d="M67.8691 24.4379C67.8691 26.4279 66.2574 28.0359 64.2627 28.0359H60.6562V24.4379C60.6562 22.4478 62.2679 20.8398 64.2627 20.8398C66.2574 20.8398 67.8691 22.4478 67.8691 24.4379Z" stroke="white" stroke-width="1.21909" stroke-miterlimit="10"/>
<path d="M3.19141 177.817H225.755" stroke="#C7C7C7" stroke-width="4.87638" stroke-miterlimit="10" stroke-linecap="round"/>
<path d="M183.578 25.6006H102.082C94.9486 25.6006 89.1719 31.3638 89.1719 38.4803V89.3621C89.1719 96.4786 94.9486 102.242 102.082 102.242H110.124V119.404H133.535L135.274 102.242H183.594C190.727 102.242 196.504 96.4786 196.504 89.3621V38.4803C196.504 31.3638 190.727 25.6006 183.594 25.6006H183.578Z" fill="#BBBBBB"/>
<path d="M125.492 102.226L206.973 102.226C214.103 102.226 219.883 96.4592 219.883 89.3459V38.48C219.883 31.3667 214.103 25.6003 206.973 25.6003L125.492 25.6003C118.362 25.6003 112.583 31.3667 112.583 38.48L112.583 89.3459C112.583 96.4592 118.362 102.226 125.492 102.226Z" fill="#989898"/>
<path d="M133.519 90.1426V119.389L159.546 93.4222L133.519 90.1426Z" fill="#989898"/>
<path d="M227.383 17.0352H213.818C212.549 17.0352 211.521 18.0616 211.521 19.3277V32.8601C211.521 34.1263 212.549 35.1527 213.818 35.1527H227.383C228.652 35.1527 229.68 34.1263 229.68 32.8601V19.3277C229.68 18.0616 228.652 17.0352 227.383 17.0352Z" stroke="#E5E5E5" stroke-width="5" stroke-linejoin="round"/>
<path d="M217.233 22.8304L220.92 26.5081L230 17.4277" stroke="#989898" stroke-width="5" stroke-linecap="round" stroke-linejoin="round"/>
<path d="M88.3103 78.2656H23.5695C17.9025 78.2656 13.3086 82.8488 13.3086 88.5025V128.925C13.3086 134.578 17.9025 139.161 23.5695 139.161H88.3103C93.9772 139.161 98.5712 134.578 98.5712 128.925V88.5025C98.5712 82.8488 93.9772 78.2656 88.3103 78.2656Z" fill="#BBBBBB"/>
<path d="M89.9216 129.546L100.262 152.79H87.0651L69.2402 132.157L89.9216 129.546Z" fill="#BBBBBB"/>
<path d="M106.646 78.2656H41.9054C36.2385 78.2656 31.6445 82.8488 31.6445 88.5025V128.925C31.6445 134.578 36.2385 139.161 41.9054 139.161H106.646C112.313 139.161 116.907 134.578 116.907 128.925V88.5025C116.907 82.8488 112.313 78.2656 106.646 78.2656Z" fill="#E5E5E5"/>
<path d="M100.263 129.546V152.79L79.582 132.157L100.263 129.546Z" fill="#E5E5E5"/>
<path d="M140.254 72.9314C145.013 72.9314 148.871 69.0824 148.871 64.3344C148.871 59.5863 145.013 55.7373 140.254 55.7373C135.495 55.7373 131.637 59.5863 131.637 64.3344C131.637 69.0824 135.495 72.9314 140.254 72.9314Z" fill="white"/>
<path d="M192.212 72.9314C196.971 72.9314 200.829 69.0824 200.829 64.3344C200.829 59.5863 196.971 55.7373 192.212 55.7373C187.453 55.7373 183.595 59.5863 183.595 64.3344C183.595 69.0824 187.453 72.9314 192.212 72.9314Z" fill="white"/>
<path d="M166.231 72.7097C170.991 72.7097 174.849 68.8607 174.849 64.1127C174.849 59.3647 170.991 55.5156 166.231 55.5156C161.472 55.5156 157.614 59.3647 157.614 64.1127C157.614 68.8607 161.472 72.7097 166.231 72.7097Z" fill="white"/>
<path d="M51.991 116.172C56.0715 116.172 59.3795 112.872 59.3795 108.801C59.3795 104.73 56.0715 101.43 51.991 101.43C47.9105 101.43 44.6025 104.73 44.6025 108.801C44.6025 112.872 47.9105 116.172 51.991 116.172Z" fill="#989898"/>
<path d="M96.5603 116.172C100.641 116.172 103.949 112.872 103.949 108.801C103.949 104.73 100.641 101.43 96.5603 101.43C92.4798 101.43 89.1719 104.73 89.1719 108.801C89.1719 112.872 92.4798 116.172 96.5603 116.172Z" fill="#989898"/>
<path d="M74.2684 115.981C78.3489 115.981 81.6568 112.68 81.6568 108.609C81.6568 104.538 78.3489 101.238 74.2684 101.238C70.1878 101.238 66.8799 104.538 66.8799 108.609C66.8799 112.68 70.1878 115.981 74.2684 115.981Z" fill="#989898"/>
<path d="M66.623 148.554L54.6865 163.933" stroke="#E5E5E5" stroke-width="4.87638" stroke-miterlimit="10" stroke-linecap="round"/>
<path d="M52.8525 146.277L39.416 154.365" stroke="#E5E5E5" stroke-width="4.87638" stroke-miterlimit="10" stroke-linecap="round"/>
<path d="M76.5966 152.455L76.0859 168.105" stroke="#E5E5E5" stroke-width="4.87638" stroke-miterlimit="10" stroke-linecap="round"/>
</g>
<defs>
<clipPath id="clip0_191_507">
<rect width="233" height="181" fill="white"/>
</clipPath>
</defs>
</svg>
