<svg width="305" height="212" viewBox="0 0 305 212" fill="none" xmlns="http://www.w3.org/2000/svg">
<path d="M228.2 186.846C228.242 184.621 228.472 182.038 230.318 180.82C231.597 179.959 233.274 180.064 234.762 180.358C236.251 180.652 237.782 181.135 239.291 180.946C240.13 180.841 240.927 180.547 241.765 180.568C242.604 180.589 243.526 181.093 243.631 181.912C243.736 182.647 243.17 183.298 242.897 183.97C242.331 185.355 242.897 186.93 243.044 188.421C243.212 190.059 242.835 191.696 242.457 193.313C242.206 194.426 241.933 195.56 241.178 196.421C240.319 197.407 238.935 197.827 237.614 197.806C235.056 197.785 229.919 196.609 227.99 194.636C227.173 193.796 226.9 192.725 226.816 191.57C226.753 190.71 226.774 189.849 227.026 189.03C227.194 188.463 228.2 187.287 228.2 186.846Z" fill="#989898"/>
<path d="M246.356 171.078C246.398 168.852 246.629 166.269 248.474 165.052C249.753 164.191 251.43 164.296 252.919 164.59C254.407 164.884 255.938 165.367 257.447 165.178C258.286 165.073 259.083 164.779 259.922 164.8C260.76 164.821 261.683 165.325 261.788 166.143C261.892 166.878 261.326 167.529 261.054 168.201C260.488 169.587 261.054 171.162 261.2 172.652C261.368 174.29 260.991 175.928 260.613 177.545C260.362 178.657 260.089 179.791 259.334 180.652C258.475 181.639 257.091 182.059 255.77 182.038C253.212 182.017 248.075 180.841 246.147 178.867C245.329 178.027 245.056 176.957 244.972 175.802C244.909 174.941 244.93 174.08 245.182 173.261C245.35 172.694 246.356 171.519 246.356 171.078Z" fill="#989898"/>
<path d="M233.337 159.404C233.379 157.178 233.609 154.596 235.454 153.378C236.733 152.517 238.411 152.622 239.899 152.916C241.388 153.21 242.918 153.693 244.428 153.504C245.267 153.399 246.063 153.105 246.902 153.126C247.741 153.147 248.663 153.651 248.768 154.47C248.873 155.205 248.307 155.855 248.034 156.527C247.468 157.913 248.034 159.488 248.181 160.979C248.349 162.616 247.971 164.254 247.594 165.871C247.342 166.983 247.07 168.117 246.315 168.978C245.455 169.965 244.072 170.385 242.751 170.364C240.193 170.343 235.056 169.167 233.127 167.193C232.309 166.354 232.037 165.283 231.953 164.128C231.89 163.267 231.911 162.406 232.163 161.587C232.33 161.021 233.337 159.845 233.337 159.404Z" fill="#989898"/>
<path d="M229.5 145.462C229.542 143.237 229.772 140.654 231.617 139.436C232.896 138.576 234.574 138.681 236.062 138.975C237.551 139.268 239.081 139.751 240.591 139.562C241.43 139.457 242.226 139.164 243.065 139.185C243.904 139.205 244.826 139.709 244.931 140.528C245.036 141.263 244.47 141.914 244.197 142.586C243.631 143.972 244.197 145.546 244.344 147.037C244.512 148.675 244.134 150.313 243.757 151.929C243.505 153.042 243.233 154.176 242.478 155.037C241.618 156.024 240.235 156.443 238.914 156.422C236.356 156.401 231.219 155.226 229.29 153.252C228.472 152.412 228.2 151.341 228.116 150.187C228.053 149.326 228.074 148.465 228.326 147.646C228.493 147.079 229.5 145.903 229.5 145.462Z" fill="#989898"/>
<path d="M259.041 201.418H230.548C228.996 201.418 227.675 200.263 227.466 198.71L221.532 152.581C221.302 150.733 222.727 149.074 224.614 149.074H264.975C266.841 149.074 268.288 150.712 268.057 152.581L262.123 198.71C261.935 200.263 260.614 201.418 259.041 201.418Z" stroke="#E5E5E5" stroke-width="5" stroke-miterlimit="10"/>
<path d="M244.784 149.074L223.797 170.113" stroke="#E5E5E5" stroke-width="5" stroke-miterlimit="10"/>
<path d="M266.715 150.396L226.773 190.395" stroke="#E5E5E5" stroke-width="5" stroke-miterlimit="10"/>
<path d="M264.241 176.517L239.396 201.418" stroke="#E5E5E5" stroke-width="5" stroke-miterlimit="10"/>
<path d="M244.952 149.074L265.814 169.966" stroke="#E5E5E5" stroke-width="5" stroke-miterlimit="10"/>
<path d="M223.021 150.396L262.962 190.395" stroke="#E5E5E5" stroke-width="5" stroke-miterlimit="10"/>
<path d="M224.488 175.529L250.34 201.418" stroke="#E5E5E5" stroke-width="5" stroke-miterlimit="10"/>
<path d="M159.576 143.552H145.402V173.199H159.576V143.552Z" fill="#C7C7C7"/>
<path d="M135.485 79.0508H169.514V148.318C169.514 151.95 166.579 154.89 162.951 154.89H142.069C138.442 154.89 135.506 151.95 135.506 148.318V79.0508H135.485Z" fill="#E5E5E5"/>
<path d="M224.006 93.959V116.509C224.006 122.724 218.974 127.763 212.768 127.763H92.2527C86.0466 127.763 81.0146 122.724 81.0146 116.509V93.959" stroke="#E5E5E5" stroke-width="7" stroke-miterlimit="10"/>
<path d="M185.427 100.824H119.551C108.564 100.824 100.136 91.0401 101.729 80.143L111.29 15.3903C112.59 6.55086 120.18 0 129.111 0H175.867C184.798 0 192.367 6.55086 193.688 15.3903L203.249 80.143C204.863 91.0401 196.435 100.824 185.427 100.824Z" fill="#C7C7C7"/>
<path d="M195.807 140.612H109.173C106.154 140.612 103.47 138.659 102.526 135.783L98.7315 124.109C97.2639 119.595 100.639 114.934 105.378 114.934H199.581C204.34 114.934 207.695 119.574 206.227 124.109L202.432 135.783C201.488 138.659 198.805 140.612 195.786 140.612H195.807Z" fill="#C7C7C7"/>
<path d="M157.815 16.9864C157.815 14.041 155.435 11.6533 152.5 11.6533C149.564 11.6533 147.185 14.041 147.185 16.9864V83.8597C147.185 86.8051 149.564 89.1928 152.5 89.1928C155.435 89.1928 157.815 86.8051 157.815 83.8597V16.9864Z" fill="#E5E5E5"/>
<path d="M134.856 17.6254C135.13 14.6929 132.984 12.0931 130.061 11.8185C127.139 11.5439 124.547 13.6985 124.272 16.631L118.034 83.212C117.759 86.1444 119.906 88.7443 122.828 89.0189C125.751 89.2935 128.343 87.1388 128.618 84.2063L134.856 17.6254Z" fill="#E5E5E5"/>
<path d="M176.365 84.1671C176.64 87.0996 179.232 89.2542 182.155 88.9796C185.077 88.705 187.224 86.1052 186.949 83.1727L180.711 16.5918C180.436 13.6593 177.844 11.5046 174.922 11.7792C171.999 12.0538 169.853 14.6537 170.127 17.5862L176.365 84.1671Z" fill="#E5E5E5"/>
<path d="M74.4308 87.1143H87.5558C91.7281 87.1143 95.1247 90.5157 95.1247 94.6939V102.736H66.8828V94.6939C66.8828 90.5157 70.2794 87.1143 74.4517 87.1143H74.4308Z" fill="#C7C7C7"/>
<path d="M217.443 87.1143H230.569C234.741 87.1143 238.137 90.5157 238.137 94.6939V102.736H209.896V94.6939C209.896 90.5157 213.292 87.1143 217.464 87.1143H217.443Z" fill="#C7C7C7"/>
<path d="M152.489 184.872C158.928 184.872 164.147 179.646 164.147 173.198C164.147 166.751 158.928 161.524 152.489 161.524C146.051 161.524 140.832 166.751 140.832 173.198C140.832 179.646 146.051 184.872 152.489 184.872Z" fill="#E5E5E5"/>
<path d="M187.462 192.767V186.3C187.462 184.768 186.477 183.403 185.03 182.941L159.597 174.689H145.424L119.992 182.941C118.545 183.403 117.56 184.768 117.56 186.3V192.767" stroke="#E5E5E5" stroke-width="7" stroke-miterlimit="10"/>
<path d="M117.517 203.034C121.327 203.034 124.415 199.942 124.415 196.127C124.415 192.311 121.327 189.219 117.517 189.219C113.707 189.219 110.619 192.311 110.619 196.127C110.619 199.942 113.707 203.034 117.517 203.034Z" fill="#C7C7C7"/>
<path d="M187.461 203.034C191.271 203.034 194.359 199.942 194.359 196.127C194.359 192.311 191.271 189.219 187.461 189.219C183.652 189.219 180.563 192.311 180.563 196.127C180.563 199.942 183.652 203.034 187.461 203.034Z" fill="#C7C7C7"/>
<path d="M152.489 173.199V192.768" stroke="#E5E5E5" stroke-width="7" stroke-miterlimit="10"/>
<path d="M152.49 203.034C156.299 203.034 159.388 199.942 159.388 196.127C159.388 192.311 156.299 189.219 152.49 189.219C148.68 189.219 145.592 192.311 145.592 196.127C145.592 199.942 148.68 203.034 152.49 203.034Z" fill="#C7C7C7"/>
<path d="M6.29004 205.701H298.71" stroke="#C7C7C7" stroke-width="6" stroke-miterlimit="10" stroke-linecap="round"/>
<path d="M152.49 93.9799C161.232 93.9799 168.32 86.8826 168.32 78.1276C168.32 69.3727 161.232 62.2754 152.49 62.2754C143.747 62.2754 136.66 69.3727 136.66 78.1276C136.66 86.8826 143.747 93.9799 152.49 93.9799Z" fill="#989898"/>
<path d="M152.49 68.8255C160.711 68.8255 167.376 62.1513 167.376 53.9181C167.376 45.685 160.711 39.0107 152.49 39.0107C144.268 39.0107 137.604 45.685 137.604 53.9181C137.604 62.1513 144.268 68.8255 152.49 68.8255Z" fill="#989898"/>
<path d="M135.339 105.528C131.754 105.842 128.127 106.094 124.583 105.57C121.04 105.045 117.497 103.638 115.002 101.034C111.794 97.6959 110.683 92.7408 111.249 88.1426C111.815 83.5444 113.828 79.2611 116.218 75.2928C118.608 71.3245 121.355 67.5872 123.577 63.5139C125.233 60.4694 126.617 57.089 126.387 53.6246C126.156 50.1602 123.913 46.6328 120.516 45.877" stroke="#989898" stroke-width="7" stroke-miterlimit="10" stroke-linecap="round"/>
<path d="M137.604 53.6662V34.3076C137.604 34.3076 146.577 34.3076 151.903 43.9869L137.604 53.6662Z" fill="#989898"/>
<path d="M167.375 53.6662V34.3076C167.375 34.3076 158.402 34.3076 153.076 43.9869L167.375 53.6662Z" fill="#989898"/>
<path d="M172.68 114.954C174.378 111.763 175.343 108.131 175.343 104.267C175.343 91.6276 165.111 81.4023 152.51 81.4023C139.909 81.4023 129.678 91.6486 129.678 104.267C129.678 108.131 130.642 111.763 132.34 114.954H172.701H172.68Z" fill="#989898"/>
<path d="M146.325 57.7188C148.687 57.7188 150.602 55.8012 150.602 53.4356C150.602 51.07 148.687 49.1523 146.325 49.1523C143.963 49.1523 142.048 51.07 142.048 53.4356C142.048 55.8012 143.963 57.7188 146.325 57.7188Z" fill="white"/>
<path d="M158.654 57.7188C161.016 57.7188 162.931 55.8012 162.931 53.4356C162.931 51.07 161.016 49.1523 158.654 49.1523C156.292 49.1523 154.377 51.07 154.377 53.4356C154.377 55.8012 156.292 57.7188 158.654 57.7188Z" fill="white"/>
<path d="M62.2077 191.591C62.2497 189.366 62.4803 186.783 64.3254 185.565C65.6043 184.705 67.2816 184.81 68.7703 185.103C70.2589 185.397 71.7894 185.88 73.299 185.691C74.1377 185.586 74.9344 185.292 75.7731 185.313C76.6117 185.334 77.5343 185.838 77.6391 186.657C77.7439 187.392 77.1778 188.043 76.9053 188.715C76.3392 190.101 76.9053 191.675 77.052 193.166C77.2198 194.804 76.8424 196.441 76.465 198.058C76.2134 199.171 75.9408 200.305 75.186 201.166C74.3264 202.152 72.9426 202.572 71.6217 202.551C69.0638 202.53 63.927 201.355 61.9981 199.381C61.1804 198.541 60.9078 197.47 60.824 196.315C60.7611 195.455 60.782 194.594 61.0336 193.775C61.2013 193.208 62.2077 192.032 62.2077 191.591Z" fill="#989898"/>
</svg>
