<svg width="263" height="180" viewBox="0 0 263 180" fill="none" xmlns="http://www.w3.org/2000/svg">
<g clip-path="url(#clip0_188_200)">
<path d="M105.075 176.332H185.147C190.249 176.332 194.386 172.193 194.386 167.087L194.386 10.1999C194.386 5.0941 190.249 0.955032 185.147 0.955032H105.075C99.9728 0.955032 95.8364 5.0941 95.8364 10.1999L95.8364 167.087C95.8364 172.193 99.9728 176.332 105.075 176.332Z" fill="#C7C7C7"/>
<path d="M141.389 176.332H221.46C226.563 176.332 230.699 172.193 230.699 167.087L230.699 10.1999C230.699 5.0941 226.563 0.955032 221.46 0.955032H141.389C136.286 0.955032 132.15 5.0941 132.15 10.1999V167.087C132.15 172.193 136.286 176.332 141.389 176.332Z" fill="#989898"/>
<path d="M175.321 61.1181C175.321 71.5919 166.833 80.0847 156.366 80.0847C145.899 80.0847 137.411 71.5919 137.411 61.1181C137.411 50.6443 145.899 42.1515 156.366 42.1515C166.833 42.1515 175.321 50.6443 175.321 61.1181ZM203.001 54.2762H194.917C193.909 48.5532 191.654 43.2521 188.464 38.6847L194.184 32.9617C195.32 31.8244 195.32 29.9534 194.184 28.8162L188.666 23.2949C187.529 22.1577 185.66 22.1577 184.523 23.2949L178.804 29.0179C174.221 25.8079 171.929 23.5701 166.21 22.5612V14.472C166.21 12.8578 164.89 11.5371 163.277 11.5371H152.461C150.848 11.5371 149.528 12.8578 149.528 14.472V22.5612C143.809 23.5701 138.511 25.8263 133.947 29.0179L128.227 23.2949C127.091 22.1577 125.221 22.1577 124.085 23.2949L118.567 28.8162C117.43 29.9534 117.43 31.8244 118.567 32.9617L124.286 38.6847C121.078 43.2704 118.842 48.5532 117.834 54.2762H109.749C108.136 54.2762 106.816 55.5969 106.816 57.2111V65.0252C106.816 66.6394 108.136 67.96 109.749 67.96H117.834C118.842 73.683 121.097 78.9842 124.286 83.5516L118.567 89.2746C117.43 90.4118 117.43 92.2828 118.567 93.4201L124.085 98.9413C125.221 100.079 127.091 100.079 128.227 98.9413L133.947 93.2183C138.53 96.4283 143.809 98.6662 149.528 99.675V107.764C149.528 109.378 150.848 110.699 152.461 110.699H160.271C161.884 110.699 163.204 109.378 163.204 107.764V99.675C168.923 98.6662 174.221 96.41 178.785 93.2183L184.505 98.9413C185.641 100.079 187.511 100.079 188.648 98.9413L194.165 93.4201C195.302 92.2828 195.302 90.4118 194.165 89.2746L188.446 83.5516C191.654 78.9658 193.89 73.683 194.899 67.96H202.983C204.596 67.96 205.916 66.6394 205.916 65.0252V57.2111C205.916 55.5969 204.596 54.2762 202.983 54.2762H203.001Z" fill="#E5E5E5"/>
<path d="M126.303 22.4336H136.183L135.633 99.7859H125.808L127.696 67.4656L126.303 22.4336Z" fill="#E5E5E5"/>
<path d="M185.641 22.4336H195.521L194.971 99.7859H186.466L187.034 67.4656L185.641 22.4336Z" fill="#E5E5E5"/>
<path d="M185.146 61.1181C185.146 71.5919 176.659 80.0847 166.191 80.0847C155.724 80.0847 147.237 71.5919 147.237 61.1181C147.237 50.6443 155.724 42.1515 166.191 42.1515C176.659 42.1515 185.146 50.6443 185.146 61.1181ZM212.826 54.2762H204.742C203.734 48.5532 201.479 43.2521 198.29 38.6847L204.009 32.9617C205.146 31.8244 205.146 29.9534 204.009 28.8162L198.491 23.2949C197.355 22.1577 195.485 22.1577 194.348 23.2949L188.629 29.0179C184.046 25.8079 178.767 23.5701 173.047 22.5612V14.472C173.047 12.8578 171.728 11.5371 170.114 11.5371H162.305C160.692 11.5371 159.372 12.8578 159.372 14.472V22.5612C153.653 23.5701 148.355 25.8263 143.791 29.0179L138.071 23.2949C136.935 22.1577 135.065 22.1577 133.928 23.2949L128.411 28.8162C127.274 29.9534 127.274 31.8244 128.411 32.9617L134.13 38.6847C130.922 43.2704 128.686 48.5532 127.677 54.2762H119.593C117.98 54.2762 116.66 55.5969 116.66 57.2111V65.0252C116.66 66.6394 117.98 67.96 119.593 67.96H127.677C128.686 73.683 130.94 78.9842 134.13 83.5516L128.411 89.2746C127.274 90.4118 127.274 92.2828 128.411 93.4201L133.928 98.9413C135.065 100.079 136.935 100.079 138.071 98.9413L143.791 93.2183C148.373 96.4283 153.653 98.6662 159.372 99.675V107.764C159.372 109.378 160.692 110.699 162.305 110.699H170.114C171.728 110.699 173.047 109.378 173.047 107.764V99.675C178.767 98.6662 184.065 96.41 188.629 93.2183L194.348 98.9413C195.485 100.079 197.355 100.079 198.491 98.9413L204.009 93.4201C205.146 92.2828 205.146 90.4118 204.009 89.2746L198.29 83.5516C201.498 78.9658 203.734 73.683 204.742 67.96H212.826C214.44 67.96 215.759 66.6394 215.759 65.0252V57.2111C215.759 55.5969 214.44 54.2762 212.826 54.2762Z" fill="#C7C7C7"/>
<path d="M92.2434 117.028C92.2434 129.593 82.0695 139.773 69.5125 139.773C56.9555 139.773 46.7816 129.593 46.7816 117.028C46.7816 104.463 56.9555 94.2826 69.5125 94.2826C82.0695 94.2826 92.2434 104.463 92.2434 117.028ZM125.423 108.829H115.726C114.516 101.968 111.821 95.6216 107.99 90.1371L114.846 83.2768C116.221 81.9011 116.221 79.6816 114.846 78.3059L108.228 71.6841C106.853 70.3084 104.635 70.3084 103.261 71.6841L96.4046 78.5443C90.9235 74.7107 88.1738 72.0142 81.3179 70.8036V61.1002C81.3179 59.1558 79.7414 57.5967 77.7983 57.5967H64.838C62.8949 57.5967 61.3184 59.1742 61.3184 61.1002V70.8036C54.4625 72.0142 48.1198 74.7107 42.6387 78.5443L35.7828 71.6841C34.408 70.3084 32.1899 70.3084 30.815 71.6841L24.1974 78.3059C22.8225 79.6816 22.8225 81.9011 24.1974 83.2768L31.0533 90.1371C27.2221 95.6216 24.5274 101.968 23.3175 108.829H13.6202C11.6771 108.829 10.1006 110.406 10.1006 112.35V121.724C10.1006 123.668 11.6771 125.227 13.6202 125.227H23.3175C24.5274 132.087 27.2221 138.434 31.0533 143.919L24.1974 150.779C22.8225 152.155 22.8225 154.374 24.1974 155.75L30.815 162.372C32.1899 163.747 34.408 163.747 35.7828 162.372L42.6387 155.511C48.1198 159.345 54.4625 162.041 61.3184 163.252V172.956C61.3184 174.9 62.8949 176.477 64.838 176.477H74.2053C76.1485 176.477 77.725 174.9 77.725 172.956V163.252C84.5809 162.041 90.9235 159.345 96.4046 155.511L103.261 162.372C104.635 163.747 106.853 163.747 108.228 162.372L114.846 155.75C116.221 154.374 116.221 152.155 114.846 150.779L107.99 143.919C111.821 138.434 114.516 132.087 115.726 125.227H125.423C127.366 125.227 128.943 123.65 128.943 121.724V112.35C128.943 110.406 127.366 108.829 125.423 108.829Z" fill="#E5E5E5"/>
<path d="M33.4743 70.6748H45.3164L44.6564 163.38H32.8877L35.1425 124.64L33.4743 70.6748Z" fill="#E5E5E5"/>
<path d="M104.617 70.6748H116.459L115.799 163.38H105.607L106.285 124.64L104.617 70.6748Z" fill="#E5E5E5"/>
<path d="M104.012 117.028C104.012 129.593 93.8381 139.773 81.2811 139.773C68.7241 139.773 58.5502 129.593 58.5502 117.028C58.5502 104.463 68.7241 94.2826 81.2811 94.2826C93.8381 94.2826 104.012 104.463 104.012 117.028ZM137.192 108.829H127.494C126.285 101.968 123.59 95.6216 119.759 90.1371L126.615 83.2768C127.989 81.9011 127.989 79.6816 126.615 78.3059L119.997 71.6841C118.622 70.3084 116.404 70.3084 115.029 71.6841L108.173 78.5443C102.692 74.7107 96.3494 72.0142 89.4935 70.8036V61.1002C89.4935 59.1558 87.917 57.5967 85.9739 57.5967H76.6066C74.6635 57.5967 73.087 59.1742 73.087 61.1002V70.8036C66.231 72.0142 59.8884 74.7107 54.4073 78.5443L47.5514 71.6841C46.1765 70.3084 43.9584 70.3084 42.5836 71.6841L35.966 78.3059C34.5911 79.6816 34.5911 81.9011 35.966 83.2768L42.8219 90.1371C38.9906 95.6216 36.2959 101.968 35.086 108.829H25.3888C23.4456 108.829 21.8691 110.406 21.8691 112.35V121.724C21.8691 123.668 23.4456 125.227 25.3888 125.227H35.086C36.2959 132.087 38.9906 138.434 42.8219 143.919L35.966 150.779C34.5911 152.155 34.5911 154.374 35.966 155.75L42.5836 162.372C43.9584 163.747 46.1765 163.747 47.5514 162.372L54.4073 155.511C59.8884 159.345 66.231 162.041 73.087 163.252V172.956C73.087 174.9 74.6635 176.477 76.6066 176.477H85.9739C87.917 176.477 89.4935 174.9 89.4935 172.956V163.252C96.3494 162.041 102.692 159.345 108.173 155.511L115.029 162.372C116.404 163.747 118.622 163.747 119.997 162.372L126.615 155.75C127.989 154.374 127.989 152.155 126.615 150.779L119.759 143.919C123.59 138.434 126.285 132.087 127.494 125.227H137.192C139.135 125.227 140.711 123.65 140.711 121.724V112.35C140.711 110.406 139.135 108.829 137.192 108.829Z" fill="#989898"/>
<path d="M3.66602 176.332H259.333" stroke="#C7C7C7" stroke-width="5.93852" stroke-miterlimit="10" stroke-linecap="round"/>
<path d="M150.135 120.459H142.564C141.47 120.459 140.584 121.346 140.584 122.44V130.016C140.584 131.11 141.47 131.997 142.564 131.997H150.135C151.228 131.997 152.114 131.11 152.114 130.016V122.44C152.114 121.346 151.228 120.459 150.135 120.459Z" fill="#C7C7C7"/>
<path d="M219.921 120.459H160.619C159.283 120.459 158.199 121.543 158.199 122.88V129.575C158.199 130.913 159.283 131.997 160.619 131.997H219.921C221.257 131.997 222.341 130.913 222.341 129.575V122.88C222.341 121.543 221.257 120.459 219.921 120.459Z" fill="#C7C7C7"/>
<path d="M150.135 154.153H142.564C141.47 154.153 140.584 155.04 140.584 156.134V163.71C140.584 164.804 141.47 165.691 142.564 165.691H150.135C151.228 165.691 152.114 164.804 152.114 163.71V156.134C152.114 155.04 151.228 154.153 150.135 154.153Z" fill="#C7C7C7"/>
<path d="M219.921 154.153H160.619C159.283 154.153 158.199 155.237 158.199 156.575V163.27C158.199 164.607 159.283 165.691 160.619 165.691H219.921C221.257 165.691 222.341 164.607 222.341 163.27V156.575C222.341 155.237 221.257 154.153 219.921 154.153Z" fill="#C7C7C7"/>
<path d="M150.135 137.297H142.564C141.47 137.297 140.584 138.184 140.584 139.278V146.854C140.584 147.948 141.47 148.835 142.564 148.835H150.135C151.228 148.835 152.114 147.948 152.114 146.854V139.278C152.114 138.184 151.228 137.297 150.135 137.297Z" fill="#C7C7C7"/>
<path d="M219.921 137.297H160.619C159.283 137.297 158.199 138.381 158.199 139.718V146.413C158.199 147.751 159.283 148.835 160.619 148.835H219.921C221.257 148.835 222.341 147.751 222.341 146.413V139.718C222.341 138.381 221.257 137.297 219.921 137.297Z" fill="#C7C7C7"/>
<path d="M230.699 129.996C230.699 129.996 230.699 164.536 259.333 176.312" stroke="#C7C7C7" stroke-width="1.48463" stroke-miterlimit="10" stroke-linecap="round"/>
<path d="M234.842 150.267L228.628 176.332L243.788 165.289" stroke="#C7C7C7" stroke-width="1.48463" stroke-miterlimit="10" stroke-linecap="round"/>
<path d="M231.581 138.82C228.941 143.113 228.465 148.67 230.334 153.366C230.866 154.724 231.783 156.136 233.212 156.375C232.773 158.19 232.333 160.043 232.461 161.914C232.589 163.785 233.322 165.693 234.844 166.793C236.512 167.986 238.73 167.967 240.765 167.894C240.27 169.38 240.435 171.086 241.223 172.461C242.012 173.837 243.386 174.846 244.926 175.158" stroke="#C7C7C7" stroke-width="1.48463" stroke-miterlimit="10" stroke-linecap="round"/>
<path d="M6.9834 176.552C22.62 170.591 26.0114 163.932 42.0696 143.076C42.0696 143.076 41.6113 166.353 30.9975 176.314" stroke="#C7C7C7" stroke-width="1.48463" stroke-linecap="round" stroke-linejoin="round"/>
<path d="M34.7383 152.706C34.7383 152.706 34.7383 158.227 40.586 155.604C40.586 155.604 42.8957 160.575 47.6069 155.274" stroke="#C7C7C7" stroke-width="1.48463" stroke-linecap="round" stroke-linejoin="round"/>
<path d="M26.8916 163.381C26.8916 163.381 29.018 169.801 37.9087 165.178C37.9087 165.178 42.9315 172.222 49.9341 165.839" stroke="#C7C7C7" stroke-width="1.48463" stroke-linecap="round" stroke-linejoin="round"/>
<path d="M42.0713 143.076C42.0713 143.076 53.62 162.813 48.7806 173.36" stroke="#C7C7C7" stroke-width="1.48463" stroke-linecap="round" stroke-linejoin="round"/>
</g>
<defs>
<clipPath id="clip0_188_200">
<rect width="263" height="179.046" fill="white" transform="translate(0 0.954102)"/>
</clipPath>
</defs>
</svg>
