<svg width="358" height="371" viewBox="0 0 358 371" fill="none" xmlns="http://www.w3.org/2000/svg">
<path d="M176.521 57.755V11.9727" stroke="#E5E5E5" stroke-width="10" stroke-miterlimit="10" stroke-linecap="round"/>
<path d="M139.876 59.8376L123.685 20.7598" stroke="#E5E5E5" stroke-width="10" stroke-miterlimit="10" stroke-linecap="round"/>
<path d="M105.673 79.5442L73.291 47.1709" stroke="#E5E5E5" stroke-width="10" stroke-miterlimit="10" stroke-linecap="round"/>
<path d="M213.143 59.8376L229.334 20.7598" stroke="#E5E5E5" stroke-width="10" stroke-miterlimit="10" stroke-linecap="round"/>
<path d="M247.345 79.5442L279.727 47.1709" stroke="#E5E5E5" stroke-width="10" stroke-miterlimit="10" stroke-linecap="round"/>
<path d="M84.428 94.7734H108.523V155.785H70.4404V108.757C70.4404 101.047 76.7157 94.7734 84.428 94.7734Z" fill="#989898"/>
<path d="M209.981 303.787H147.612V346.959H209.981V303.787Z" fill="#989898"/>
<path d="M140.474 329.982H217.094C226.411 329.982 233.98 337.549 233.98 346.863V354.071H123.612V346.863C123.612 337.549 131.181 329.982 140.498 329.982H140.474Z" fill="#C7C7C7"/>
<path d="M300.708 135.145H56.8841C45.0848 135.145 35.5195 144.707 35.5195 156.503V293.994C35.5195 305.79 45.0848 315.353 56.8841 315.353H300.708C312.508 315.353 322.073 305.79 322.073 293.994V156.503C322.073 144.707 312.508 135.145 300.708 135.145Z" fill="#C7C7C7"/>
<path d="M293.379 153.438H64.1894C58.6601 153.438 54.1777 157.919 54.1777 163.446V287.073C54.1777 292.601 58.6601 297.082 64.1894 297.082H293.379C298.909 297.082 303.391 292.601 303.391 287.073V163.446C303.391 157.919 298.909 153.438 293.379 153.438Z" fill="#989898"/>
<path d="M256.087 94.7734H101.506V297.083H256.087V94.7734Z" fill="#E5E5E5"/>
<path d="M229.645 216.7H128.355C125.96 216.7 124.02 218.641 124.02 221.034V221.992C124.02 224.386 125.96 226.326 128.355 226.326H229.645C232.039 226.326 233.98 224.386 233.98 221.992V221.034C233.98 218.641 232.039 216.7 229.645 216.7Z" fill="white"/>
<path d="M229.645 240.932H128.355C125.96 240.932 124.02 242.872 124.02 245.266V246.223C124.02 248.617 125.96 250.557 128.355 250.557H229.645C232.039 250.557 233.98 248.617 233.98 246.223V245.266C233.98 242.872 232.039 240.932 229.645 240.932Z" fill="white"/>
<path d="M229.645 166.655H128.355C125.96 166.655 124.02 168.596 124.02 170.989V171.947C124.02 174.341 125.96 176.281 128.355 176.281H229.645C232.039 176.281 233.98 174.341 233.98 171.947V170.989C233.98 168.596 232.039 166.655 229.645 166.655Z" fill="white"/>
<path d="M229.645 190.888H128.355C125.96 190.888 124.02 192.828 124.02 195.222V196.179C124.02 198.573 125.96 200.513 128.355 200.513H229.645C232.039 200.513 233.98 198.573 233.98 196.179V195.222C233.98 192.828 232.039 190.888 229.645 190.888Z" fill="white"/>
<path d="M229.645 265.164H128.355C125.96 265.164 124.02 267.104 124.02 269.498V270.456C124.02 272.849 125.96 274.79 128.355 274.79H229.645C232.039 274.79 233.98 272.849 233.98 270.456V269.498C233.98 267.104 232.039 265.164 229.645 265.164Z" fill="white"/>
<path d="M248.71 126.261C263.949 126.261 276.302 113.911 276.302 98.6761C276.302 83.4417 263.949 71.0918 248.71 71.0918C233.471 71.0918 221.118 83.4417 221.118 98.6761C221.118 113.911 233.471 126.261 248.71 126.261Z" fill="#989898"/>
<path d="M235.034 97.1441L243.752 105.86L262.411 87.207" stroke="white" stroke-width="7" stroke-miterlimit="10"/>
<path fill-rule="evenodd" clip-rule="evenodd" d="M165.097 143.86H150.438L151.995 141.154C152.929 139.55 154.534 138.616 156.402 138.616H169.863C170.629 138.616 171.276 138.257 171.659 137.61L170.486 139.646L170.007 140.508L169.528 141.322C168.594 142.926 166.989 143.86 165.121 143.86H165.097Z" fill="white"/>
<path fill-rule="evenodd" clip-rule="evenodd" d="M171.132 133.396H156.474L158.03 130.69C158.965 129.086 160.569 128.152 162.438 128.152H175.898C176.665 128.152 177.335 127.769 177.718 127.099L176.521 129.158L175.563 130.834C174.629 132.438 173.024 133.372 171.156 133.372L171.132 133.396Z" fill="white"/>
<path fill-rule="evenodd" clip-rule="evenodd" d="M177.191 122.932H162.533L164.09 120.226C165.024 118.622 166.629 117.688 168.497 117.688H181.958C182.724 117.688 183.395 117.305 183.778 116.635L182.58 118.694L181.622 120.37C180.688 121.974 179.084 122.908 177.215 122.908L177.191 122.932Z" fill="white"/>
<path fill-rule="evenodd" clip-rule="evenodd" d="M171.635 137.611L172.593 135.935C173.527 134.33 175.132 133.396 177 133.396H201.191C203.059 133.396 204.664 134.33 205.598 135.935L207.155 138.64H172.282C171.515 138.64 170.869 139 170.485 139.646L171.659 137.611H171.635Z" fill="white"/>
<path fill-rule="evenodd" clip-rule="evenodd" d="M177.695 127.123L178.653 125.471C179.587 123.843 181.192 122.933 183.036 122.933H195.131C196.999 122.933 198.604 123.866 199.538 125.471L201.095 128.177H178.293C177.527 128.177 176.88 128.536 176.497 129.182L177.695 127.123Z" fill="white"/>
<path fill-rule="evenodd" clip-rule="evenodd" d="M184.688 115.007C185.622 113.403 187.227 112.469 189.095 112.469C190.964 112.469 192.568 113.403 193.502 115.007L195.059 117.713H184.353C183.587 117.713 182.94 118.072 182.557 118.718L184.688 115.007Z" fill="white"/>
<path fill-rule="evenodd" clip-rule="evenodd" d="M131.78 213.516V204.225H123.157C122.415 199.628 120.619 195.413 118.008 191.798L124.092 185.716L117.529 179.155L111.445 185.237C107.829 182.627 103.613 180.831 99.0145 180.089V171.469H89.7214V180.089C85.1228 180.831 80.9073 182.627 77.2907 185.237L71.2071 179.155L64.6444 185.716L70.728 191.798C68.1174 195.413 66.321 199.628 65.5785 204.225H56.9561V213.516H65.5785C66.321 218.113 68.1174 222.327 70.728 225.943L64.6444 232.025L71.2071 238.586L77.2907 232.504C80.9073 235.114 85.1228 236.91 89.7214 237.652V246.272H99.0145V237.652C103.613 236.91 107.829 235.114 111.445 232.504L117.529 238.586L124.092 232.025L118.008 225.943C120.619 222.327 122.415 218.113 123.157 213.516H131.78Z" fill="#C7C7C7"/>
<path d="M94.3678 222.231C101.749 222.231 107.733 216.249 107.733 208.87C107.733 201.491 101.749 195.509 94.3678 195.509C86.9866 195.509 81.0029 201.491 81.0029 208.87C81.0029 216.249 86.9866 222.231 94.3678 222.231Z" fill="#E5E5E5"/>
<path fill-rule="evenodd" clip-rule="evenodd" d="M158.989 264.038V257.286H152.713C152.186 253.958 150.869 250.869 148.977 248.259L153.408 243.829L148.618 239.04L144.187 243.47C141.552 241.578 138.486 240.261 135.157 239.734V233.461H128.403V239.734C125.074 240.261 121.984 241.578 119.373 243.47L114.942 239.04L110.152 243.829L114.583 248.259C112.691 250.893 111.373 253.958 110.847 257.286H104.571V264.038H110.847C111.373 267.367 112.691 270.456 114.583 273.066L110.152 277.495L114.942 282.284L119.373 277.855C122.008 279.746 125.074 281.063 128.403 281.59V287.863H135.157V281.59C138.486 281.063 141.576 279.746 144.187 277.855L148.618 282.284L153.408 277.495L148.977 273.066C150.869 270.432 152.186 267.367 152.713 264.038H158.989Z" fill="#C7C7C7"/>
<path d="M131.78 270.385C137.15 270.385 141.504 266.032 141.504 260.663C141.504 255.294 137.15 250.941 131.78 250.941C126.409 250.941 122.056 255.294 122.056 260.663C122.056 266.032 126.409 270.385 131.78 270.385Z" fill="#E5E5E5"/>
<path d="M11.9756 359.027H346.024" stroke="#E5E5E5" stroke-width="10" stroke-miterlimit="10" stroke-linecap="round"/>
<path d="M89.482 94.7734C95.6374 95.6354 100.356 100.664 100.835 106.866L101.482 115.246V94.7734H89.458H89.482Z" fill="#E5E5E5"/>
</svg>
